<svg xmlns="http://www.w3.org/2000/svg" viewBox="0 0 281.5 283.5" xml:space="preserve"><path d="M281.5 131.7c0 49.3-42.1 91-99.9 104.6-2.6.6 22.8 34.5 31 45.4.7 1-.4 2.2-1.6 1.7-23-9.3-133-53.8-136.3-55.1C30.3 209.8 0 173.5 0 131.7 0 71.3 63 22.4 140.7 22.4s140.8 48.9 140.8 109.3z" fill="#a1acbe"/><path d="M281.5 120.5c0 49.3-42.1 91-99.9 104.6-2.6.6 22.8 34.5 31 45.4.7 1-.4 2.2-1.6 1.7-23-9.3-133-53.8-136.3-55.1C30.3 198.6 0 162.3 0 120.5 0 60.1 63 11.2 140.7 11.2s140.8 48.9 140.8 109.3z" fill="#697a97"/><path d="M281.5 109.3c0 49.3-42.1 91-99.9 104.6-2.6.6 22.8 34.5 31 45.4.7 1-.4 2.2-1.6 1.7-23-9.3-133-53.8-136.3-55.1C30.3 187.5 0 151.1 0 109.3 0 48.9 63 0 140.7 0s140.8 48.9 140.8 109.3z" fill="#f8f7f7"/></svg>