<svg xmlns="http://www.w3.org/2000/svg" viewBox="0 0 187.3 188.6" xml:space="preserve"><path d="M187.3 87.6c0 32.8-28 60.6-66.5 69.6-1.7.4 15.2 22.9 20.7 30.2.5.6-.3 1.4-1.1 1.1-15.3-6.2-88.5-35.8-90.7-36.7C20.1 139.7 0 115.5 0 87.6c0-40.2 41.9-72.7 93.7-72.7s93.6 32.6 93.6 72.7z" fill="#a1acbe"/><path d="M187.3 80.2c0 32.8-28 60.6-66.5 69.6-1.7.4 15.2 22.9 20.7 30.2.5.6-.3 1.4-1.1 1.1-15.3-6.2-88.5-35.8-90.7-36.7C20.1 132.2 0 108 0 80.2 0 40 41.9 7.4 93.7 7.4s93.6 32.6 93.6 72.8z" fill="#697a97"/><path d="M187.3 72.7c0 32.8-28 60.6-66.5 69.6-1.7.4 15.2 22.9 20.7 30.2.5.6-.3 1.4-1.1 1.1-15.3-6.2-88.5-35.8-90.7-36.7C20.1 124.8 0 100.6 0 72.7 0 32.6 41.9 0 93.7 0s93.6 32.6 93.6 72.7z" fill="#f8f7f7"/></svg>