<svg version="1.1" id="Calque_1" xmlns="http://www.w3.org/2000/svg" x="0" y="0" viewBox="0 0 283.5 188.6" xml:space="preserve"><style>.st0{fill:#a1acbe}.st1{fill:#697a97}.st2{fill:#f8f7f7}</style><path class="st0" d="M232.8 188.6c1.2 0 2.2-1 2.2-2.3v-81.1c0-62-38.2-93.3-93.4-93.3-53.6 0-90.7 31.3-93.4 91.1-.9 20.6-.6 68.2-.5 83.3 0 1.3 1 2.3 2.2 2.3h8.5c1.2 0 2.2-1 2.2-2.2 3.8-78.4 3.2-148.5 80.7-149.6 85.8-1.1 76.6 89.1 77.7 149.5 0 1.3 1 2.3 2.3 2.3h11.5zM39.8 186.9c0 .7-.6 1.3-1.2 1.2-21.4-.6-38.6-19-38.6-41.6s17.2-41 38.6-41.7c.7 0 1.2.6 1.2 1.2v80.9zM243.6 186.9c0 .7.6 1.3 1.2 1.2 21.4-.7 38.6-19.1 38.6-41.7s-17.2-41-38.6-41.7c-.7 0-1.2.6-1.2 1.2v81z"/><g><path class="st1" d="M232.8 182.7c1.2 0 2.2-1 2.2-2.3V99.3c0-62-38.2-93.3-93.4-93.3-53.5 0-90.5 31.3-93.3 91.1-.9 20.6-.6 68.2-.5 83.3 0 1.3 1 2.3 2.2 2.3h8.5c1.2 0 2.2-1 2.2-2.2 3.8-78.4 3.2-148.5 80.7-149.6 85.8-1.1 76.6 89.1 77.7 149.5 0 1.3 1 2.3 2.3 2.3h11.4zM39.8 180.9c0 .7-.6 1.3-1.2 1.2-21.4-.6-38.6-19-38.6-41.6s17.2-41 38.6-41.7c.7 0 1.2.6 1.2 1.2v80.9zM243.6 180.9c0 .7.6 1.3 1.2 1.2 21.4-.7 38.6-19.1 38.6-41.7s-17.2-41-38.6-41.7c-.7 0-1.2.6-1.2 1.2v81z"/></g><g><path class="st2" d="M232.8 176.7c1.2 0 2.2-1 2.2-2.3V93.3c0-62-38.2-93.3-93.4-93.3-53.5 0-90.5 31.3-93.3 91.1-.9 20.6-.6 68.2-.5 83.3 0 1.3 1 2.3 2.2 2.3h8.5c1.2 0 2.2-1 2.2-2.2C64.6 96.1 63.9 26 141.5 24.9c85.8-1.1 76.6 89.1 77.7 149.5 0 1.3 1 2.3 2.3 2.3h11.3zM39.8 175c0 .7-.6 1.3-1.2 1.2-21.4-.6-38.6-19-38.6-41.7s17.2-41 38.6-41.7c.7 0 1.2.6 1.2 1.2v81zM243.6 175c0 .7.6 1.3 1.2 1.2 21.4-.7 38.6-19.1 38.6-41.7s-17.2-41-38.6-41.7c-.7 0-1.2.6-1.2 1.2v81z"/></g></svg>