<svg version="1.1" id="Calque_1" xmlns="http://www.w3.org/2000/svg" x="0" y="0" viewBox="0 0 283.5 235.6" xml:space="preserve"><style>.st0{fill:#a1acbe}.st1{fill:#697a97}.st2{fill:#f8f7f7}</style><g id="logo"><path class="st0" d="M233.3 180.1c1.2 0 2.2-1 2.2-2.2v-77.4c0-59.2-38.1-89.1-93.3-89.1-53.6 0-90.6 29.9-93.3 87-.9 19.7-.6 65.1-.5 79.6 0 1.2 1 2.2 2.2 2.2H59c1.2 0 2.2-.9 2.2-2.1 3.8-74.8 3.2-141.8 80.6-142.8 85.7-1.1 76.5 85.1 77.6 142.8 0 1.2 1 2.2 2.3 2.2l11.6-.2zM40.5 178.4c0 .7-.5 1.2-1.2 1.2C17.8 179 .7 161.4.7 139.8s17.2-39.2 38.6-39.8c.7 0 1.2.5 1.2 1.2v77.2zM244.1 178.4c0 .7.5 1.2 1.2 1.2 21.4-.6 38.6-18.2 38.6-39.8s-17.2-39.2-38.6-39.8c-.7 0-1.2.5-1.2 1.2v77.2z"/><path class="st1" d="M233.3 174.4c1.2 0 2.2-1 2.2-2.2V94.8c0-59.2-38.1-89.1-93.3-89.1-53.6 0-90.6 29.9-93.3 87-.9 19.7-.6 65.1-.5 79.6 0 1.2 1 2.2 2.2 2.2H59c1.2 0 2.2-.9 2.2-2.1 4-74.9 3.4-141.9 80.8-142.9 85.7-1.1 76.5 85.1 77.6 142.8 0 1.2 1 2.2 2.3 2.2l11.4-.1zM40.5 172.8c0 .7-.5 1.2-1.2 1.2C17.9 173.4.7 155.8.7 134.2S17.8 95 39.3 94.4c.7 0 1.2.5 1.2 1.2v77.2zM244.1 172.8c0 .7.5 1.2 1.2 1.2 21.4-.6 38.6-18.2 38.6-39.8S266.7 95 245.3 94.4c-.7 0-1.2.5-1.2 1.2v77.2z"/><g><path class="st2" d="M233.3 168.7c1.2 0 2.2-1 2.2-2.2V89.1c0-59.2-38.1-89.1-93.3-89.1C88.7 0 51.7 29.9 49 87c-.9 19.7-.6 65.1-.5 79.6 0 1.2 1 2.2 2.2 2.2h8.4c1.2 0 2.2-.9 2.2-2.1C65.2 91.8 64.6 24.8 142 23.8c85.7-1.1 76.5 85.1 77.6 142.8 0 1.2 1 2.2 2.3 2.2l11.4-.1zM40.5 167.1c0 .7-.5 1.2-1.2 1.2C17.8 167.6.7 150 .7 128.5s17.2-39.2 38.6-39.8c.7 0 1.2.5 1.2 1.2v77.2zM244.1 167.1c0 .7.5 1.2 1.2 1.2 21.4-.6 38.6-18.2 38.6-39.8s-17.2-39.2-38.6-39.8c-.7 0-1.2.5-1.2 1.2v77.2z"/></g><path class="st1" d="M207.9 108.5c0 23.1-19.7 42.7-46.9 49.1-1.2.3 10.7 16.2 14.6 21.3.3.5-.2 1-.8.8-10.8-4.4-62.3-25.2-63.9-25.9-20.8-8.6-35-25.7-35-45.3 0-28.3 29.5-51.2 66-51.2s66 22.9 66 51.2z"/><path class="st2" d="M207.9 103.2c0 23.1-19.7 42.7-46.9 49.1-1.2.3 10.7 16.2 14.6 21.3.3.5-.2 1-.8.8-10.8-4.4-62.3-25.2-63.9-25.9-20.8-8.6-35-25.7-35-45.3C76 74.9 105.5 52 142 52s65.9 22.9 65.9 51.2z"/><path class="st0" d="M207.9 98c0 23.1-19.7 42.7-46.9 49.1-1.2.3 10.7 16.2 14.6 21.3.3.5-.2 1-.8.8-10.8-4.4-62.3-25.2-63.9-25.9-20.8-8.6-35-25.7-35-45.3 0-28.3 29.5-51.2 66-51.2s66 22.9 66 51.2z"/></g><text transform="matrix(1.0156 0 0 1 -.33 233.914)" class="st2" font-size="51" font-family="Quicksand-SemiBold">Music &amp; Tell</text></svg>