<svg id="Calque_1" data-name="Calque 1" xmlns="http://www.w3.org/2000/svg" viewBox="0 0 283.35 180.19"><defs><style>.cls-1{fill:#a1acbe}.cls-2{fill:#f8f7f7}.cls-3{fill:#697a97}</style></defs><g id="logo"><path class="cls-1" d="M232.81 180.44a2.23 2.23 0 0 0 2.24-2.22v-77.43c0-59.26-38.15-89.16-93.32-89.16-53.6 0-90.63 29.9-93.35 87-.93 19.68-.59 65.1-.5 79.6a2.22 2.22 0 0 0 2.24 2.2h8.44a2.25 2.25 0 0 0 2.25-2.13C64.64 103.44 64 36.42 141.46 35.43c85.74-1.08 76.57 85.16 77.63 142.83a2.23 2.23 0 0 0 2.25 2.18ZM39.88 178.77a1.19 1.19 0 0 1-1.2 1.18 39.83 39.83 0 0 1 0-79.62 1.19 1.19 0 0 1 1.2 1.19ZM243.58 178.77a1.19 1.19 0 0 0 1.21 1.18 39.83 39.83 0 0 0 0-79.62 1.2 1.2 0 0 0-1.21 1.19Z" transform="translate(-.06 -.25)"/><path class="cls-2" d="M232.81 174.75a2.23 2.23 0 0 0 2.24-2.22V95.1c0-59.26-38.15-89.16-93.32-89.16-53.6 0-90.63 29.9-93.35 87-.93 19.68-.59 65.1-.5 79.6a2.22 2.22 0 0 0 2.24 2.2h8.44a2.25 2.25 0 0 0 2.25-2.13C64.64 97.75 64 30.73 141.46 29.74c85.74-1.08 76.54 85.16 77.63 142.83a2.23 2.23 0 0 0 2.25 2.18ZM39.88 173.08a1.19 1.19 0 0 1-1.2 1.18 39.82 39.82 0 0 1 0-79.61 1.18 1.18 0 0 1 1.2 1.18ZM243.58 173.08a1.19 1.19 0 0 0 1.21 1.18 39.82 39.82 0 0 0 0-79.61 1.18 1.18 0 0 0-1.21 1.18Z" transform="translate(-.06 -.25)"/><path class="cls-3" d="M232.81 169.06a2.23 2.23 0 0 0 2.24-2.22V89.41c0-59.26-38.15-89.16-93.32-89.16-53.6 0-90.63 29.9-93.35 87-.93 19.68-.59 65.1-.5 79.6a2.22 2.22 0 0 0 2.24 2.2h8.44a2.25 2.25 0 0 0 2.25-2.13C64.64 92.06 64 25 141.46 24.06 227.2 23 218 109.21 219.09 166.88a2.23 2.23 0 0 0 2.25 2.18ZM39.88 167.39a1.18 1.18 0 0 1-1.2 1.18 39.82 39.82 0 0 1 0-79.61 1.18 1.18 0 0 1 1.2 1.18ZM243.58 167.39a1.18 1.18 0 0 0 1.21 1.18 39.82 39.82 0 0 0 0-79.61 1.18 1.18 0 0 0-1.21 1.18Z" transform="translate(-.06 -.25)"/><path class="cls-2" d="M207.4 108.76c0 23.14-19.74 42.7-46.87 49.07-1.2.28 10.69 16.16 14.56 21.28.34.46-.2 1-.76.79L110.42 154c-20.84-8.62-35-25.67-35-45.28 0-28.32 29.55-51.27 66-51.27s65.98 22.99 65.98 51.31Z" transform="translate(-.06 -.25)"/><path class="cls-3" d="M207.4 103.51c0 23.14-19.74 42.7-46.87 49.07-1.2.29 10.69 16.16 14.56 21.29.34.45-.2 1-.76.78l-63.91-25.86c-20.84-8.62-35-25.66-35-45.28 0-28.31 29.55-51.26 66-51.26s65.98 22.95 65.98 51.26Z" transform="translate(-.06 -.25)"/><path class="cls-1" d="M207.4 98.26c0 23.14-19.74 42.7-46.87 49.07-1.2.29 10.69 16.16 14.56 21.29.34.45-.2 1-.76.78l-63.91-25.86c-20.84-8.62-35-25.66-35-45.28C75.39 70 104.94 47 141.4 47s66 23 66 51.26Z" transform="translate(-.06 -.25)"/></g></svg>