<svg version="1.1" id="Calque_1" xmlns="http://www.w3.org/2000/svg" x="0" y="0" viewBox="0 0 177.4 188.6" xml:space="preserve"><style>.st3{fill:#040506}</style><circle cx="88.7" cy="99.5" r="88.7" fill="#a1acbe"/><circle cx="88.7" cy="94.3" r="88.7" fill="#697a97"/><circle cx="88.7" cy="89.2" r="88.7" fill="#f8f7f7"/><g><path class="st3" d="M120.5 89.2c.1 8.3-3.3 16.7-9.1 22.7-5.8 6.1-14.1 9.9-22.7 10.1-4.3.1-8.6-.6-12.7-2.1-4.1-1.6-7.8-3.9-11-7-3.1-3.1-5.7-6.7-7.4-10.8C55.9 98 55 93.6 55 89.2s.9-8.8 2.6-12.9c1.7-4.1 4.3-7.7 7.4-10.8 3.2-3.1 6.9-5.4 11-7 4.1-1.6 8.4-2.3 12.7-2.1 8.6.2 16.9 4 22.7 10.1 5.8 6 9.2 14.3 9.1 22.7zm0 0c0-4.2-.9-8.3-2.5-12.2-1.6-3.8-4.1-7.3-7-10.2-3-2.9-6.5-5.1-10.4-6.6-3.8-1.5-7.9-2.1-12-2-8.1.2-15.9 3.8-21.3 9.5-5.5 5.7-8.6 13.5-8.6 21.3-.1 7.8 3.1 15.6 8.6 21.3 5.4 5.7 13.2 9.3 21.3 9.5 4 .1 8.1-.5 12-2 3.8-1.5 7.4-3.7 10.4-6.6 3-2.9 5.4-6.3 7-10.2 1.7-3.5 2.5-7.7 2.5-11.8z"/></g><g><path class="st3" d="M88.7 57.3c-.5-3.2-.6-6.4-.6-9.6 0-1.6 0-3.2.1-4.8.1-1.6.2-3.2.5-4.8.3 1.6.4 3.2.5 4.8.1 1.6.1 3.2.1 4.8 0 3.2-.1 6.4-.6 9.6zM66.9 65.8c-2.6-1.9-5-4.1-7.2-6.3-1.1-1.1-2.2-2.3-3.3-3.5-1.1-1.2-2.1-2.4-3-3.7 1.3.9 2.5 2 3.7 3 1.2 1.1 2.4 2.2 3.5 3.3 2.3 2.2 4.4 4.6 6.3 7.2zM139.7 89.2c-3.2.5-6.4.6-9.6.6-1.6 0-3.2 0-4.8-.1-1.6-.1-3.2-.2-4.8-.5 1.6-.3 3.2-.4 4.8-.5 1.6-.1 3.2-.1 4.8-.1 3.2 0 6.4.1 9.6.6zM57.5 89.2c-3.2.5-6.4.6-9.6.6-1.6 0-3.2 0-4.8-.1-1.6-.1-3.2-.2-4.8-.5 1.6-.3 3.2-.4 4.8-.5 1.6-.1 3.2-.1 4.8-.1 3.3 0 6.5.1 9.6.6zM64.3 111.1c-1.9 2.6-4.1 5-6.3 7.2-1.1 1.1-2.3 2.2-3.5 3.3-1.2 1.1-2.4 2.1-3.7 3 .9-1.3 2-2.5 3-3.7 1.1-1.2 2.2-2.4 3.3-3.5 2.3-2.2 4.6-4.4 7.2-6.3zM88.7 140.2c-.5-3.2-.6-6.4-.6-9.6 0-1.6 0-3.2.1-4.8.1-1.6.2-3.2.5-4.8.3 1.6.4 3.2.5 4.8.1 1.6.1 3.2.1 4.8 0 3.2-.1 6.4-.6 9.6zM125.4 54.4c-1.9 2.6-4.1 5-6.3 7.2-1.1 1.1-2.3 2.2-3.5 3.3-1.2 1.1-2.4 2.1-3.7 3 .9-1.3 2-2.5 3-3.7 1.1-1.2 2.2-2.4 3.3-3.5 2.2-2.2 4.6-4.4 7.2-6.3zM125.4 124.6c-2.6-1.9-5-4.1-7.2-6.3-1.1-1.1-2.2-2.3-3.3-3.5-1.1-1.2-2.1-2.4-3-3.7 1.3.9 2.5 2 3.7 3 1.2 1.1 2.4 2.2 3.5 3.3 2.2 2.3 4.4 4.6 6.3 7.2z"/></g></svg>