<svg xmlns="http://www.w3.org/2000/svg" viewBox="0 0 95.5 72.7"><path d="M95.5 0c-1.4 3-2.9 6-4.4 8.9-1.5 3-3.1 5.9-4.6 8.8-3.2 5.8-6.4 11.6-9.8 17.2-3.4 5.7-6.8 11.3-10.3 16.9-1.7 2.8-3.5 5.6-5.3 8.3-1.8 2.8-3.6 5.5-5.4 8.3l-.1.2-.1.2c-.9 1.2-2.1 2.2-3.5 2.8-1.4.7-2.9 1-4.4 1-1.5 0-3-.3-4.4-1-1.4-.7-2.6-1.7-3.5-2.8l-.1-.2-.1-.1c-1.8-2.7-3.6-5.5-5.4-8.3-1.8-2.8-3.5-5.5-5.3-8.3-3.5-5.6-6.9-11.2-10.3-16.9-3.3-5.7-6.6-11.4-9.7-17.2C7.2 14.9 5.7 12 4.2 9 2.9 6 1.4 3 0 0c2.3 2.4 4.4 5 6.6 7.5 2.2 2.5 4.3 5.1 6.3 7.6 4.2 5.1 8.2 10.4 12.2 15.6 4 5.3 7.9 10.6 11.7 16l5.7 8.1c1.9 2.7 3.7 5.4 5.6 8.2l-.2-.3-.3.3c1.8-2.7 3.7-5.4 5.6-8.2l5.7-8.1c3.8-5.4 7.7-10.7 11.7-16 4-5.3 8-10.5 12.2-15.6 2.1-2.6 4.2-5.1 6.3-7.6 2-2.5 4.2-5 6.4-7.5z" fill="#a1acbe"/><path d="M95.5 0c-6.1 11.9-13 23.3-20.1 34.5-3.6 5.6-7.2 11.1-11 16.6-1.9 2.7-3.8 5.5-5.7 8.2l-2.9 4.1-.2.3-.1.1-.1.2c-.3.3-.6.7-.9.9-.6.6-1.3 1.1-2 1.5-1.5.8-3.1 1.2-4.8 1.2-1.6 0-3.3-.4-4.8-1.2-.7-.4-1.4-.9-2-1.5L40 64l-.2-.3-.1-.1-.2-.3-2.9-4.1c-1.9-2.7-3.8-5.4-5.7-8.2-3.7-5.5-7.4-11-11-16.6C13 23.3 6.1 11.9 0 0c9.4 9.5 18 19.6 26.4 29.9 4.2 5.1 8.2 10.3 12.3 15.6 2 2.6 4 5.3 6 7.9l2.9 4 .2.3.1.1s-.1-.1 0-.1v.1l.1-.1.2-.3 2.9-4c2-2.6 3.9-5.3 6-7.9 4-5.3 8.1-10.5 12.3-15.6C77.5 19.6 86.1 9.5 95.5 0z" fill="#697a97"/><path d="M95.5 0c-6.1 11.2-13.1 21.7-20.2 32.1-3.6 5.2-7.3 10.3-11 15.3l-5.7 7.5-2.9 3.7c-.1.1-.4.5-.6.7-.3.3-.5.6-.8.8-.6.5-1.3 1-2 1.3-1.4.7-3 1.1-4.5 1.1-1.6 0-3.1-.4-4.5-1.1-.7-.4-1.4-.8-2-1.3-.3-.3-.6-.5-.8-.8-.2-.3-.6-.6-.6-.7L37 54.9l-5.7-7.5c-3.7-5.1-7.4-10.1-11-15.3C13.1 21.7 6.1 11.2 0 0c9.4 8.6 18 17.8 26.4 27.2 4.2 4.7 8.3 9.5 12.3 14.3l6 7.3 2.9 3.7c.2.2.1.1.1.2 0 0 0 .1.1-.2l2.9-3.7c2-2.4 4-4.9 6-7.3 4-4.8 8.1-9.6 12.3-14.3C77.5 17.8 86.1 8.6 95.5 0z" fill="#f8f7f7"/></svg>