<svg id="Calque_1" data-name="Calque 1" xmlns="http://www.w3.org/2000/svg" viewBox="0 0 283.46 180.27"><defs><style>.cls-1{fill:#a1acbe}.cls-2{fill:#697a97}.cls-3{fill:#f8f7f7}</style></defs><g id="logo"><path class="cls-1" d="M232.85 180.27a2.22 2.22 0 002.23-2.22v-77.47c0-59.28-38.15-89.2-93.35-89.2-53.62 0-90.67 29.92-93.39 87.05-.93 19.69-.59 65.13-.5 79.63a2.23 2.23 0 002.24 2.21h8.45a2.26 2.26 0 002.25-2.14c3.83-74.9 3.16-141.95 80.68-142.93 85.78-1.09 76.6 85.19 77.66 142.88a2.23 2.23 0 002.25 2.19zm-193.01-1.68a1.19 1.19 0 01-1.2 1.19 39.84 39.84 0 010-79.65 1.18 1.18 0 011.2 1.18zm203.78 0a1.2 1.2 0 001.21 1.19 39.84 39.84 0 000-79.65 1.18 1.18 0 00-1.21 1.18z"/><path class="cls-2" d="M232.85 174.58a2.23 2.23 0 002.23-2.23V94.89c0-59.28-38.15-89.2-93.35-89.2-53.62 0-90.67 29.92-93.39 87.05-.93 19.68-.59 65.12-.5 79.63a2.23 2.23 0 002.24 2.21h8.45a2.26 2.26 0 002.25-2.14c3.83-74.9 3.16-141.95 80.68-142.93 85.78-1.09 76.6 85.19 77.66 142.88a2.24 2.24 0 002.25 2.19zM39.84 172.9a1.18 1.18 0 01-1.2 1.18 39.84 39.84 0 010-79.65 1.19 1.19 0 011.2 1.19zm203.78 0a1.18 1.18 0 001.21 1.18 39.84 39.84 0 000-79.65 1.2 1.2 0 00-1.21 1.19z"/><path class="cls-3" d="M232.85 168.88a2.22 2.22 0 002.23-2.22V89.2c0-59.28-38.15-89.2-93.35-89.2-53.62 0-90.67 29.92-93.39 87.05-.93 19.68-.59 65.12-.5 79.63a2.22 2.22 0 002.24 2.2h8.45a2.25 2.25 0 002.25-2.13c3.83-74.9 3.16-141.95 80.68-142.93 85.78-1.09 76.6 85.18 77.66 142.88a2.23 2.23 0 002.25 2.18zm-193.01-1.67a1.18 1.18 0 01-1.2 1.18 39.84 39.84 0 010-79.65 1.19 1.19 0 011.2 1.19zm203.78 0a1.18 1.18 0 001.21 1.18 39.84 39.84 0 000-79.65 1.19 1.19 0 00-1.21 1.19z"/><path class="cls-2" d="M207.43 108.55c0 23.15-19.76 42.72-46.89 49.1-1.21.28 10.69 16.16 14.56 21.29.35.45-.2 1-.76.78-10.77-4.35-62.39-25.23-63.93-25.87-20.85-8.62-35-25.67-35-45.3 0-28.32 29.57-51.28 66-51.28s66.02 22.96 66.02 51.28z"/><path class="cls-3" d="M207.43 103.3c0 23.15-19.76 42.72-46.89 49.1-1.21.28 10.69 16.16 14.56 21.29.35.45-.2 1-.76.78l-63.93-25.87c-20.85-8.62-35-25.67-35-45.3C75.36 75 104.93 52 141.4 52s66.03 23 66.03 51.3z"/><path class="cls-1" d="M207.43 98.05c0 23.15-19.76 42.72-46.89 49.09-1.21.29 10.69 16.17 14.56 21.3.35.45-.2 1-.76.78l-63.93-25.87c-20.85-8.62-35-25.67-35-45.3 0-28.32 29.57-51.28 66-51.28s66.02 22.96 66.02 51.28z"/></g></svg>