<svg version="1.1" id="Calque_1" xmlns="http://www.w3.org/2000/svg" x="0" y="0" viewBox="0 0 177.4 188.6" xml:space="preserve"><style>.st1{fill:#f8f7f7}</style><circle cx="88.7" cy="99.5" r="88.7" fill="#a1acbe"/><circle class="st1" cx="88.7" cy="94.3" r="88.7"/><circle cx="88.7" cy="89.2" r="88.7" fill="#697a97"/><path class="st1" d="M120.5 89.2c.1 8.3-3.3 16.7-9.1 22.7-5.8 6.1-14.1 9.9-22.7 10.1-4.3.1-8.7-.6-12.7-2.1-4.1-1.6-7.8-3.9-11-7-3.1-3.1-5.7-6.7-7.5-10.8-1.7-4.1-2.6-8.5-2.6-12.9s.9-8.8 2.6-12.9c1.7-4.1 4.3-7.8 7.5-10.8 3.2-3.1 7-5.4 11-7 4.1-1.6 8.4-2.3 12.7-2.1 8.6.3 16.9 4 22.7 10.1 5.8 6 9.2 14.3 9.1 22.7zm0 0c0-4.2-.9-8.3-2.5-12.2-1.6-3.8-4.1-7.3-7-10.2-3-2.9-6.5-5.1-10.4-6.5-3.8-1.5-7.9-2.1-12-2-8.1.3-15.9 3.8-21.3 9.5-5.5 5.7-8.6 13.5-8.5 21.3-.1 7.8 3.1 15.6 8.5 21.3 5.4 5.7 13.2 9.3 21.3 9.5 4 .1 8.1-.5 12-2 3.8-1.5 7.4-3.7 10.4-6.5 3-2.9 5.4-6.3 7-10.2 1.7-3.7 2.5-7.9 2.5-12z"/></svg>